<svg xmlns="http://www.w3.org/2000/svg" version="1.1" xmlns:xlink="http://www.w3.org/1999/xlink" xmlns:svgjs="http://svgjs.dev/svgjs" width="1000" height="313" viewBox="0 0 1000 313"><g transform="matrix(1,0,0,1,-0.6060576172916399,0.4012031085220258)"><svg viewBox="0 0 396 124" data-background-color="#ffffff" preserveAspectRatio="xMidYMid meet" height="313" width="1000" xmlns="http://www.w3.org/2000/svg" xmlns:xlink="http://www.w3.org/1999/xlink"><g id="tight-bounds" transform="matrix(1,0,0,1,0.2399988164474962,-0.15894308452629957)"><svg viewBox="0 0 395.52 124.31788616905263" height="124.31788616905263" width="395.52"><g><svg viewBox="0 0 395.52 124.31788616905263" height="124.31788616905263" width="395.52"><g><svg viewBox="0 0 395.52 124.31788616905263" height="124.31788616905263" width="395.52"><g id="textblocktransform"><svg viewBox="0 0 395.52 124.31788616905263" height="124.31788616905263" width="395.52" id="textblock"><g><svg viewBox="0 0 395.52 90.69915912336842" height="90.69915912336842" width="395.52"><rect width="395.52" height="90.69915912336842" x="0" y="0" opacity="1" fill="#303060" data-fill-palette-color="tertiary"></rect><g transform="matrix(1,0,0,1,23.461705032,23.461705032)"><svg width="348.596589936" viewBox="3.25 -33.5 270.7300109863281 34" height="43.77574905936842" data-palette-color="#ffffff"><path d="M15.75 0L3.25 0 3.25-0.8 7.25-2.8 7.25-30.2 3.25-32.2 3.25-33 15.75-33 15.75-32.2 11.75-30.2 11.75-2.8 15.75-0.8 15.75 0ZM28 0L11.8-16.9 25.65-30.5 22.1-32.2 22.1-33 32.6-33 32.6-32.2 29.5-31 16.35-18.1 32.15-2.1 35.2-0.8 35.2 0 28 0ZM54.5 0.5L54.5 0.5Q51.15 0.5 48.5-0.63 45.85-1.75 44.32-4.23 42.8-6.7 42.8-10.7L42.8-10.7 42.8-25.55 39.2-27.2 39.2-28 50.65-28 50.65-27.2 47.05-25.55 47.05-11.05Q47.05-6.1 49.25-4.13 51.45-2.15 55.2-2.15L55.2-2.15Q57.4-2.15 59.2-3 61-3.85 62.07-5.58 63.15-7.3 63.15-10L63.15-10 63.15-25.65 58.85-27.2 58.85-28 69.55-28 69.55-27.2 66-25.6 66-10.7Q66-6.7 64.5-4.23 63-1.75 60.42-0.63 57.85 0.5 54.5 0.5ZM88.05 0L76.05 0 76.05-0.8 79.65-2.45 79.65-25.55 76.1-27.2 76.1-28 97.35-28 97.35-20.9 96.55-20.9 94.3-25.45 83.9-25.45 83.9-15.75 91.4-15.75 92.9-19.15 93.7-19.15 93.7-9.9 92.9-9.9 91.4-13.25 83.9-13.25 83.9-2.45 88.05-0.8 88.05 0ZM115.29 0L104.34 0 104.34-0.8 107.64-2.45 107.64-25.55 104.34-27.2 104.34-28 115.29-28 115.29-27.2 111.89-25.55 111.89-2.45 115.29-0.8 115.29 0ZM138.79 0.5L138.79 0.5Q133.69 0.5 129.99-1.6 126.29-3.7 124.29-7.33 122.29-10.95 122.29-15.6L122.29-15.6Q122.29-19.15 123.67-22.38 125.04-25.6 127.42-28.1 129.79-30.6 132.92-32.05 136.04-33.5 139.54-33.5L139.54-33.5Q142.04-33.5 143.79-33.18 145.54-32.85 146.92-32.33 148.29-31.8 149.69-31.1L149.69-31.1 149.94-22.35 149.04-22.35 145.99-28.45Q144.09-29.8 142.67-30.4 141.24-31 139.44-31L139.44-31Q135.84-31 133.02-29.2 130.19-27.4 128.57-24.28 126.94-21.15 126.94-17.1L126.94-17.1Q126.94-12.35 128.52-8.97 130.09-5.6 132.77-3.83 135.44-2.05 138.69-2.05L138.69-2.05Q141.44-2.05 143.32-2.83 145.19-3.6 146.64-4.55L146.64-4.55 149.64-9.9 150.49-9.9 149.94-1.95Q148.49-1.2 146.97-0.65 145.44-0.1 143.49 0.2 141.54 0.5 138.79 0.5ZM169.44 0L158.34 0 158.34-0.8 161.94-2.45 161.94-25.55 158.34-27.2 158.34-28 169.44-28Q174.09-28 176.76-26.1 179.44-24.2 179.44-20.9L179.44-20.9Q179.44-18.45 177.91-16.7 176.39-14.95 173.69-13.95L173.69-13.95 181.44-2.3 184.74-0.8 184.74 0 177.64 0 169.54-12.75 166.14-12.75 166.14-2.5 169.44-0.8 169.44 0ZM168.74-25.5L168.74-25.5 166.14-25.5 166.14-15.25 168.99-15.25Q171.69-15.25 173.31-16.63 174.94-18 174.94-20.4L174.94-20.4Q174.94-22.95 173.31-24.23 171.69-25.5 168.74-25.5ZM195.44 0L186.14 0 186.14-0.8 188.69-2.1 199.79-28.25 201.89-28.25 212.94-2.15 215.84-0.8 215.84 0 204.94 0 204.94-0.8 208.44-2.2 205.29-9.8 194.89-9.8 191.74-2.1 195.44-0.8 195.44 0ZM200.04-22.4L195.94-12.3 204.24-12.3 200.04-22.4ZM232.73 0L220.73 0 220.73-0.8 224.33-2.45 224.33-25.55 220.78-27.2 220.78-28 242.03-28 242.03-20.9 241.23-20.9 238.98-25.45 228.58-25.45 228.58-15.75 236.08-15.75 237.58-19.15 238.38-19.15 238.38-9.9 237.58-9.9 236.08-13.25 228.58-13.25 228.58-2.45 232.73-0.8 232.73 0ZM267.48 0L254.28 0 254.28-0.8 258.73-2.45 258.73-25.5 251.03-25.5 248.58-19.65 247.78-19.65 247.78-28 273.98-28 273.98-19.65 273.18-19.65 270.68-25.5 262.98-25.5 262.98-2.45 267.48-0.8 267.48 0Z" opacity="1" transform="matrix(1,0,0,1,0,0)" fill="#ffffff" class="undefined-text-0" data-fill-palette-color="quaternary" id="text-0"></path></svg></g></svg></g><g transform="matrix(1,0,0,1,0,102.43001163936842)"><svg viewBox="0 0 395.52 21.88787452968421" height="21.88787452968421" width="395.52"><g transform="matrix(1,0,0,1,0,0)"><svg width="395.52" viewBox="1.5 -33.95000076293945 815.8699951171875 45.150001525878906" height="21.88787452968421" data-palette-color="#901818"><path d="M11.8 0.85L11.8 0.85Q9.05 0.85 6.23 0.18 3.4-0.5 1.5-1.6L1.5-1.6 1.8-8.55 3.25-8.55 4.8-5.1Q5.5-3.65 6.25-2.7 7-1.75 8.25-1.25L8.25-1.25Q9.1-0.9 9.88-0.78 10.65-0.65 11.6-0.65L11.6-0.65Q14.65-0.65 16.43-2.23 18.2-3.8 18.2-6.4L18.2-6.4Q18.2-8.75 16.98-10.1 15.75-11.45 13.05-12.7L13.05-12.7 11-13.6Q6.8-15.45 4.38-17.9 1.95-20.35 1.95-24.4L1.95-24.4Q1.95-27.4 3.48-29.53 5-31.65 7.7-32.8 10.4-33.95 14-33.95L14-33.95Q16.65-33.95 18.98-33.25 21.3-32.55 23.05-31.35L23.05-31.35 22.7-25.15 21.25-25.15 19.4-28.9Q18.6-30.55 17.88-31.28 17.15-32 16.1-32.2L16.1-32.2Q15.5-32.3 15.08-32.35 14.65-32.4 13.95-32.4L13.95-32.4Q11.5-32.4 9.73-30.98 7.95-29.55 7.95-27.05L7.95-27.05Q7.95-24.65 9.3-23.15 10.65-21.65 13.2-20.5L13.2-20.5 15.45-19.55Q20.3-17.45 22.4-15.08 24.5-12.7 24.5-9L24.5-9Q24.5-4.6 21.18-1.88 17.85 0.85 11.8 0.85ZM86.98 0.85L86.98 0.85Q83.93 0.85 81.18-0.2L81.18-0.2 78.83 2.95Q82.13 3.75 86.11 4.63 90.08 5.5 93.98 6.3L93.98 6.3Q95.73 6.65 96.73 6.63 97.73 6.6 98.63 6.1L98.63 6.1 100.28 5.15 100.93 6.1 98.33 8.75Q97.23 9.9 96.18 10.55 95.13 11.2 93.68 11.2L93.68 11.2Q92.68 11.2 90.81 10.9 88.93 10.6 86.66 10.15 84.38 9.7 82.08 9.2 79.78 8.7 77.93 8.3L77.93 8.3Q77.08 8.1 76.36 8.22 75.63 8.35 74.98 8.9L74.98 8.9 74.18 9.55 73.18 8.9 79.53-0.95Q75.93-2.85 73.61-6.75 71.28-10.65 71.28-16.55L71.28-16.55Q71.28-20.8 72.58-24.05 73.88-27.3 76.11-29.5 78.33-31.7 81.16-32.83 83.98-33.95 86.98-33.95L86.98-33.95Q89.98-33.95 92.81-32.85 95.63-31.75 97.83-29.58 100.03-27.4 101.33-24.15 102.63-20.9 102.63-16.55L102.63-16.55Q102.63-12.3 101.33-9.05 100.03-5.8 97.83-3.6 95.63-1.4 92.83-0.28 90.03 0.85 86.98 0.85ZM86.98-0.65L86.98-0.65Q89.83-0.65 91.58-2.13 93.33-3.6 94.13-7.1 94.93-10.6 94.93-16.55L94.93-16.55Q94.93-22.5 94.13-25.98 93.33-29.45 91.58-30.93 89.83-32.4 86.98-32.4L86.98-32.4Q84.18-32.4 82.41-30.93 80.63-29.45 79.83-25.98 79.03-22.5 79.03-16.55L79.03-16.55Q79.03-10.6 79.83-7.1 80.63-3.6 82.41-2.13 84.18-0.65 86.98-0.65ZM164.82 0.85L164.82 0.85Q161.07 0.85 158.19-0.5 155.32-1.85 153.69-4.78 152.07-7.7 152.07-12.5L152.07-12.5 152.07-17.9Q152.07-20.7 152.07-23.55 152.07-26.4 152.02-29.3L152.02-29.3Q152.02-31.25 150.17-31.75L150.17-31.75 149.07-32 149.07-33.05 162.57-33.05 162.57-32 161.17-31.7Q159.27-31.25 159.27-29.2L159.27-29.2Q159.22-26.4 159.22-23.58 159.22-20.75 159.22-17.9L159.22-17.9 159.22-11.55Q159.22-6.7 161.19-4.55 163.17-2.4 166.82-2.4L166.82-2.4Q170.67-2.4 172.84-4.73 175.02-7.05 175.02-11.65L175.02-11.65 175.02-29.05Q175.02-30.05 174.62-30.8 174.22-31.55 173.22-31.75L173.22-31.75 172.02-32 172.02-33.05 179.72-33.05 179.72-32 178.32-31.7Q177.37-31.5 177.02-30.8 176.67-30.1 176.67-29.1L176.67-29.1 176.67-11.95Q176.67-5.75 173.42-2.45 170.17 0.85 164.82 0.85ZM233.05 0L225.4 0 225.4-1.05 226.75-1.45Q227.8-1.75 228.38-2.35 228.95-2.95 229.3-4L229.3-4 239.4-33.2 243.55-33.2 253.6-3.8Q254-2.7 254.5-2.13 255-1.55 256.1-1.2L256.1-1.2 256.85-1 256.85 0 244.15 0 244.15-1 245-1.25Q246.1-1.6 246.33-2.35 246.55-3.1 246.2-4.2L246.2-4.2 244.1-10.65 233.05-10.65 230.9-4.3Q230.55-3.2 230.7-2.5 230.85-1.8 231.95-1.4L231.95-1.4 233.05-1.05 233.05 0ZM238.75-27.15L233.55-12.1 243.65-12.1 238.75-27.15ZM315.49 0L302.94 0 302.94-1.05 303.99-1.35Q304.99-1.65 305.26-2.23 305.54-2.8 305.54-3.85L305.54-3.85Q305.59-6.75 305.59-9.65 305.59-12.55 305.59-15.5L305.59-15.5 305.59-17.55Q305.59-20.45 305.59-23.35 305.59-26.25 305.54-29.15L305.54-29.15Q305.54-30.2 305.29-30.78 305.04-31.35 304.04-31.65L304.04-31.65 302.94-32 302.94-33.05 316.94-33.05Q322.79-33.05 325.96-30.83 329.14-28.6 329.14-24.6L329.14-24.6Q329.14-22.4 327.41-20.15 325.69-17.9 322.14-16.7L322.14-16.7 328.94-3.45Q329.79-1.8 331.59-1.2L331.59-1.2 332.54-1 332.54 0 323.69 0 316.24-15.6 312.64-15.6Q312.64-12.05 312.64-9.2 312.64-6.35 312.69-3.85L312.69-3.85Q312.69-2.85 313.01-2.25 313.34-1.65 314.29-1.4L314.29-1.4 315.49-1.05 315.49 0ZM312.64-17.05L312.64-17.05 315.34-17.05Q318.89-17.05 320.54-18.85 322.19-20.65 322.19-24.35L322.19-24.35Q322.19-28.05 320.61-29.83 319.04-31.6 315.54-31.6L315.54-31.6 312.69-31.6Q312.69-29.65 312.66-27.63 312.64-25.6 312.64-23.08 312.64-20.55 312.64-17.05ZM403.27 0L378.47 0 378.47-1.05 379.47-1.4Q380.37-1.65 380.72-2.27 381.07-2.9 381.12-4L381.12-4 381.12-29.15Q381.07-30.2 380.77-30.78 380.47-31.35 379.52-31.65L379.52-31.65 378.47-32 378.47-33.05 402.27-33.05 402.62-25.05 401.22-25.05 399.22-29.55Q398.82-30.5 398.32-31.03 397.82-31.55 396.82-31.55L396.82-31.55 388.32-31.55Q388.27-28.45 388.27-25.18 388.27-21.9 388.27-17.8L388.27-17.8 393.22-17.8Q394.22-17.8 394.74-18.32 395.27-18.85 395.72-19.75L395.72-19.75 396.57-21.65 397.67-21.65 397.67-12.4 396.57-12.4 395.67-14.3Q395.27-15.2 394.77-15.75 394.27-16.3 393.27-16.3L393.27-16.3 388.27-16.3Q388.27-12.7 388.27-10.1 388.27-7.5 388.29-5.48 388.32-3.45 388.32-1.5L388.32-1.5 397.92-1.5Q398.92-1.5 399.47-2.02 400.02-2.55 400.37-3.5L400.37-3.5 402.22-8 403.62-8 403.27 0ZM517.89 0L505.74 0 505.74-1.05 506.79-1.35Q507.79-1.65 508.09-2.25 508.39-2.85 508.39-3.85L508.39-3.85 508.39-29.15Q508.39-30.2 508.06-30.78 507.74-31.35 506.74-31.65L506.74-31.65 505.74-32 505.74-33.05 517.89-33.05 517.89-32 516.84-31.65Q515.89-31.4 515.59-30.8 515.29-30.2 515.29-29.15L515.29-29.15 515.29-3.8Q515.29-2.8 515.64-2.23 515.99-1.65 516.94-1.35L516.94-1.35 517.89-1.05 517.89 0ZM536.49 0L523.94 0 523.94-1.05 524.54-1.2Q525.49-1.45 525.54-2.15 525.59-2.85 524.89-3.75L524.89-3.75 515.34-17 527.54-29.4Q528.29-30.15 528.36-30.78 528.44-31.4 527.44-31.75L527.44-31.75 526.59-32 526.59-33.05 534.49-33.05 534.49-32 533.19-31.65Q532.04-31.3 531.34-30.83 530.64-30.35 529.74-29.4L529.74-29.4 520.84-20.35 532.29-4Q533.09-2.9 533.81-2.25 534.54-1.6 535.79-1.25L535.79-1.25 536.49-1.05 536.49 0ZM598.12 0.85L598.12 0.85Q594.37 0.85 591.5-0.5 588.62-1.85 587-4.78 585.37-7.7 585.37-12.5L585.37-12.5 585.37-17.9Q585.37-20.7 585.37-23.55 585.37-26.4 585.32-29.3L585.32-29.3Q585.32-31.25 583.47-31.75L583.47-31.75 582.37-32 582.37-33.05 595.87-33.05 595.87-32 594.47-31.7Q592.57-31.25 592.57-29.2L592.57-29.2Q592.52-26.4 592.52-23.58 592.52-20.75 592.52-17.9L592.52-17.9 592.52-11.55Q592.52-6.7 594.5-4.55 596.47-2.4 600.12-2.4L600.12-2.4Q603.97-2.4 606.15-4.73 608.32-7.05 608.32-11.65L608.32-11.65 608.32-29.05Q608.32-30.05 607.92-30.8 607.52-31.55 606.52-31.75L606.52-31.75 605.32-32 605.32-33.05 613.02-33.05 613.02-32 611.62-31.7Q610.67-31.5 610.32-30.8 609.97-30.1 609.97-29.1L609.97-29.1 609.97-11.95Q609.97-5.75 606.72-2.45 603.47 0.85 598.12 0.85ZM672.71 0L659.51 0 659.51-1.05 660.46-1.3Q661.46-1.6 661.76-2.2 662.06-2.8 662.11-3.85L662.11-3.85Q662.16-6.7 662.16-9.63 662.16-12.55 662.16-15.5L662.16-15.5 662.16-17.55Q662.16-20.45 662.16-23.35 662.16-26.25 662.11-29.15L662.11-29.15Q662.06-30.2 661.81-30.78 661.56-31.35 660.61-31.65L660.61-31.65 659.51-32 659.51-33.05 683.56-33.05 683.91-24.6 682.56-24.6 679.96-29.55Q679.46-30.5 678.86-31.03 678.26-31.55 677.11-31.55L677.11-31.55 669.41-31.55Q669.36-28.2 669.33-24.68 669.31-21.15 669.31-17.65L669.31-17.65 674.11-17.65Q675.26-17.65 675.81-18.18 676.36-18.7 676.86-19.65L676.86-19.65 677.86-21.5 678.96-21.5 678.96-12.35 677.86-12.35 676.86-14.15Q676.31-15.15 675.78-15.68 675.26-16.2 674.11-16.2L674.11-16.2 669.31-16.2Q669.31-12.9 669.31-9.88 669.31-6.85 669.36-3.95L669.36-3.95Q669.36-1.9 671.21-1.4L671.21-1.4 672.71-1.05 672.71 0ZM743.09 0L730.59 0 730.59-1.05 731.59-1.35Q732.59-1.7 732.91-2.27 733.24-2.85 733.24-3.9L733.24-3.9 733.24-29.15Q733.24-30.2 732.91-30.78 732.59-31.35 731.59-31.7L731.59-31.7 730.59-32 730.59-33.05 743.09-33.05 743.09-32 742.09-31.7Q741.14-31.35 740.79-30.78 740.44-30.2 740.44-29.15L740.44-29.15 740.44-3.9Q740.44-2.85 740.79-2.27 741.14-1.7 742.09-1.35L742.09-1.35 743.09-1.05 743.09 0ZM806.77 0.85L806.77 0.85Q801.92 0.85 798.02-1.15 794.12-3.15 791.85-7.05 789.57-10.95 789.57-16.55L789.57-16.55Q789.57-20.75 790.95-24 792.32-27.25 794.75-29.48 797.17-31.7 800.32-32.83 803.47-33.95 807.02-33.95L807.02-33.95Q809.77-33.95 812.17-33.33 814.57-32.7 816.77-31.5L816.77-31.5 816.97-24.95 815.62-24.95 813.52-28.9Q813.02-29.9 812.45-30.7 811.87-31.5 810.97-31.85L810.97-31.85Q809.72-32.45 808.02-32.45L808.02-32.45Q805.07-32.45 802.65-30.95 800.22-29.45 798.77-25.98 797.32-22.5 797.32-16.5L797.32-16.5Q797.32-10.55 798.7-7.05 800.07-3.55 802.42-2.08 804.77-0.6 807.72-0.6L807.72-0.6Q809.07-0.6 809.92-0.8 810.77-1 811.62-1.35L811.62-1.35Q812.62-1.75 813.17-2.53 813.72-3.3 814.12-4.3L814.12-4.3 816.02-8.85 817.37-8.85 817.17-1.65Q815.02-0.45 812.42 0.2 809.82 0.85 806.77 0.85Z" opacity="1" transform="matrix(1,0,0,1,0,0)" fill="#901818" class="undefined-text-1" data-fill-palette-color="secondary" id="text-1"></path></svg></g></svg></g></svg></g></svg></g><g></g></svg></g><defs></defs></svg><rect width="395.52" height="124.31788616905263" fill="none" stroke="none" visibility="hidden"></rect></g></svg></g></svg>