<?xml version="1.0" standalone="no"?>
<!DOCTYPE svg PUBLIC "-//W3C//DTD SVG 20010904//EN"
 "http://www.w3.org/TR/2001/REC-SVG-20010904/DTD/svg10.dtd">
<svg version="1.0" xmlns="http://www.w3.org/2000/svg"
 width="700.000000pt" height="700.000000pt" viewBox="0 0 700.000000 700.000000"
 preserveAspectRatio="xMidYMid meet">
<metadata>
Created by potrace 1.14, written by Peter Selinger 2001-2017
</metadata>
<g transform="translate(0.000000,700.000000) scale(0.100000,-0.100000)"
fill="#000000" stroke="none">
<path d="M1485 6410 c-48 -11 -74 -28 -190 -126 -104 -87 -278 -257 -342 -334
-268 -320 -376 -593 -368 -932 5 -203 78 -383 216 -535 28 -31 101 -93 128
-110 2 -2 -19 -27 -47 -56 -107 -114 -201 -308 -237 -492 -7 -35 -31 -183 -39
-235 -25 -175 -26 -722 -1 -980 1 -19 6 -70 10 -113 4 -43 8 -88 10 -100 2
-12 6 -51 10 -87 4 -36 8 -76 10 -90 2 -14 6 -47 9 -75 4 -27 11 -75 16 -105
5 -30 12 -73 15 -95 23 -162 114 -578 143 -655 3 -8 6 -17 6 -20 1 -3 5 -11 9
-17 5 -7 6 -13 3 -13 -2 0 9 -37 26 -82 16 -46 32 -92 36 -103 15 -52 119
-243 160 -293 64 -79 97 -108 170 -144 56 -28 74 -32 146 -32 73 -1 90 3 147
31 186 92 316 321 439 773 25 94 65 264 76 330 2 14 7 36 9 50 3 14 8 37 10
53 20 117 25 147 30 187 3 25 8 52 10 60 2 8 7 40 10 70 3 30 8 66 10 80 2 14
6 50 10 80 3 30 8 71 10 90 43 360 53 935 20 1190 -2 19 -7 58 -11 85 -17 141
-70 329 -126 445 -44 91 -76 139 -145 211 l-44 45 59 50 c178 149 280 360 287
590 3 104 -25 287 -46 300 -5 3 -9 12 -9 20 0 30 -65 152 -157 292 -175 268
-217 373 -222 553 -3 86 -26 144 -76 188 -57 49 -122 67 -190 51z m104 -1003
c116 -178 149 -251 158 -342 34 -366 -435 -541 -658 -245 -51 69 -68 136 -64
256 1 60 5 118 8 130 29 116 82 231 155 334 46 65 167 209 186 222 6 4 31 -34
61 -95 28 -56 97 -173 154 -260z m-101 -1340 c64 -22 98 -56 141 -142 56 -112
89 -254 108 -466 16 -167 9 -622 -12 -869 -9 -102 -17 -188 -20 -210 -2 -14
-6 -50 -10 -80 -23 -191 -63 -425 -106 -620 -17 -74 -32 -139 -33 -145 -30
-113 -73 -251 -92 -292 -7 -17 -14 -34 -14 -39 0 -4 -14 -36 -31 -71 l-31 -64
-17 28 c-76 126 -178 480 -241 838 -5 33 -12 71 -15 85 -5 32 -43 310 -50 370
-5 43 -11 104 -20 200 -27 278 -27 809 1 990 41 277 112 433 217 480 48 22
170 26 225 7z"/>
<path d="M3097 6124 c-1 -1 -29 -5 -62 -8 -266 -26 -526 -115 -758 -260 l-78
-48 18 -27 c65 -98 130 -213 159 -279 19 -42 37 -76 42 -75 4 1 38 22 76 47
299 201 687 262 1056 167 367 -96 687 -365 849 -715 68 -148 117 -347 116
-478 l0 -73 -600 -1 c-330 0 -620 -4 -645 -8 -111 -20 -233 -106 -292 -206
-59 -102 -61 -123 -62 -612 0 -348 -3 -448 -13 -448 -49 0 -258 84 -370 150
-29 17 -53 29 -53 28 0 -2 -2 -113 -4 -247 l-4 -243 53 -23 c82 -37 242 -89
305 -100 8 -1 31 -5 50 -9 l36 -6 0 -698 c1 -517 4 -709 13 -742 23 -82 60
-146 118 -205 63 -63 135 -102 223 -120 62 -12 2737 -14 2800 -1 54 11 151 60
196 100 60 52 110 133 132 212 18 66 19 126 18 1444 l-1 1375 -25 68 c-46 129
-162 238 -290 273 -59 16 -117 18 -602 18 -473 1 -538 3 -539 16 -12 303 -67
528 -185 765 -42 83 -155 263 -195 310 -10 11 -27 31 -39 45 -291 339 -709
560 -1150 606 -57 6 -288 12 -293 8z m1338 -2213 c-10 -41 -81 -180 -129 -255
-65 -99 -160 -206 -256 -287 -58 -49 -174 -129 -186 -129 -4 0 -15 -6 -23 -13
-46 -38 -284 -125 -391 -142 -19 -3 -49 -8 -66 -11 l-30 -5 1 428 c1 235 3
431 4 434 0 3 244 6 542 6 l540 0 -6 -26z m1545 -1287 l0 -1313 -1312 2 -1313
2 0 658 c-1 585 1 657 15 659 8 0 26 2 40 4 42 4 102 15 170 30 36 9 72 17 81
19 183 38 512 209 664 343 237 209 369 387 498 672 9 19 30 78 48 130 17 52
33 98 35 101 2 3 244 6 539 6 l535 0 0 -1313z"/>
</g>
</svg>
